<svg width="58" height="24" viewBox="0 0 58 24" fill="none" xmlns="http://www.w3.org/2000/svg">
<path d="M25.88 13.7C25.66 15.64 24.99 17.35 23.87 18.83C22.75 20.29 21.27 21.43 19.43 22.25C17.59 23.07 15.49 23.48 13.13 23.48C10.55 23.48 8.28 22.99 6.32 22.01C4.38 21.03 2.87 19.66 1.79 17.9C0.71 16.14 0.17 14.09 0.17 11.75C0.17 9.41 0.71 7.36 1.79 5.6C2.87 3.84 4.38 2.47 6.32 1.49C8.28 0.509999 10.55 0.019999 13.13 0.019999C15.49 0.019999 17.59 0.429999 19.43 1.25C21.27 2.07 22.75 3.21 23.87 4.67C24.99 6.13 25.66 7.84 25.88 9.8H20.18C19.98 8.78 19.57 7.91 18.95 7.19C18.35 6.47 17.55 5.92 16.55 5.54C15.57 5.14 14.43 4.94 13.13 4.94C11.63 4.94 10.34 5.22 9.26 5.78C8.18 6.32 7.35 7.1 6.77 8.12C6.19 9.14 5.9 10.35 5.9 11.75C5.9 13.15 6.19 14.36 6.77 15.38C7.35 16.4 8.18 17.19 9.26 17.75C10.34 18.29 11.63 18.56 13.13 18.56C14.43 18.56 15.57 18.37 16.55 17.99C17.55 17.61 18.35 17.06 18.95 16.34C19.57 15.62 19.98 14.74 20.18 13.7H25.88ZM47.8934 9.65V13.85H31.6034V9.65H47.8934ZM35.4434 11.75L33.9434 21.05L31.5734 18.38H48.8534V23H28.2734L30.0134 11.75L28.2734 0.499998H48.7034V5.12H31.5734L33.9434 2.45L35.4434 11.75ZM54.7367 23.3C54.1367 23.3 53.5867 23.16 53.0867 22.88C52.6067 22.6 52.2267 22.22 51.9467 21.74C51.6667 21.24 51.5267 20.69 51.5267 20.09C51.5267 19.49 51.6667 18.95 51.9467 18.47C52.2267 17.99 52.6067 17.61 53.0867 17.33C53.5867 17.03 54.1367 16.88 54.7367 16.88C55.3367 16.88 55.8767 17.03 56.3567 17.33C56.8367 17.61 57.2167 17.99 57.4967 18.47C57.7767 18.95 57.9167 19.49 57.9167 20.09C57.9167 20.69 57.7767 21.24 57.4967 21.74C57.2167 22.22 56.8367 22.6 56.3567 22.88C55.8767 23.16 55.3367 23.3 54.7367 23.3Z" fill="#203030"/>
</svg>
