<svg width="296" height="97" viewBox="0 0 296 97" fill="none" xmlns="http://www.w3.org/2000/svg">
<path d="M100.742 29.5748C73.829 29.7655 45.046 32.435 22.657 38.1745C16.6065 39.7381 10.7086 41.5305 7.02482 43.9522C0.802478 48.0519 2.04313 53.3719 7.52108 57.6432C12.999 61.9145 22.1417 65.2895 31.6279 68.3214C82.9717 84.8345 149.604 94.1397 216.485 94.1397C240.916 94.1397 268.115 92.3473 282.85 84.8535C293.004 79.686 295.066 72.6308 291.515 66.2811C287.965 59.9314 279.395 54.1918 269.89 48.8337C243.874 34.1893 209.842 21.6424 170.695 12.299C152.734 8.00863 133.266 4.32846 112.327 3.20344C91.389 2.07841 68.6565 3.81362 52.948 9.26713" stroke="#587B66" stroke-width="3" stroke-miterlimit="10"/>
</svg>
